# Blender v2.72 (sub 0) OBJ File: '1bitninja.blend'
# www.blender.org
o Cube
v 4.000000 -3.000000 0.500000
v 5.000000 -3.000000 0.500000
v 5.000000 -4.000000 0.500000
v 2.000000 -4.000000 0.500000
v 2.000000 -3.000000 0.500000
v -1.000000 -3.000000 0.500000
v -1.000000 -4.000000 0.500000
v -4.000000 -4.000000 0.500000
v 4.000000 -1.000000 0.500000
v 3.000000 -1.000000 0.500000
v 3.000000 -2.000000 0.500000
v 1.000000 -2.000000 0.500000
v 1.000000 -1.000000 0.500000
v 0.000000 -1.000000 0.500000
v 0.000000 -2.000000 0.500000
v -2.000000 -2.000000 0.500000
v -2.000000 -1.000000 0.500000
v -3.000000 -1.000000 0.500000
v -3.000000 -3.000000 0.500000
v -4.000000 -3.000000 0.500000
v -1.000000 -1.000000 0.500000
v -1.000000 0.000000 0.500000
v 2.000000 0.000000 0.500000
v 2.000000 -1.000000 0.500000
v -2.000000 0.000000 0.500000
v 3.000000 0.000000 0.500000
v -1.000000 1.000000 0.500000
v -3.000000 1.000000 0.500000
v -3.000000 2.000000 0.500000
v -2.000000 2.000000 0.500000
v -2.000000 3.000000 0.500000
v -1.000000 3.000000 0.500000
v -1.000000 4.000000 0.500000
v 2.000000 4.000000 0.500000
v 2.000000 3.000000 0.500000
v 0.000000 3.000000 0.500000
v 0.000000 2.000000 0.500000
v 1.000000 2.000000 0.500000
v 1.000000 1.000000 0.500000
v 2.000000 1.000000 0.500000
v -3.000000 0.000000 0.500000
v -4.000000 0.000000 0.500000
v -4.000000 1.000000 0.500000
v 3.000000 3.000000 0.500000
v 3.000000 2.000000 0.500000
v 4.000000 2.000000 0.500000
v 4.000000 1.000000 0.500000
v 5.000000 1.000000 0.500000
v 5.000000 0.000000 0.500000
v 4.000000 0.000000 0.500000
v 4.000000 -3.000000 -0.500000
v 5.000000 -3.000000 -0.500000
v 5.000000 -4.000000 -0.500000
v 2.000000 -4.000000 -0.500000
v 2.000000 -3.000000 -0.500000
v -1.000000 -3.000000 -0.500000
v -1.000000 -4.000000 -0.500000
v -4.000000 -4.000000 -0.500000
v 4.000000 -1.000000 -0.500000
v 3.000000 -1.000000 -0.500000
v 3.000000 -2.000000 -0.500000
v 1.000000 -2.000000 -0.500000
v 1.000000 -1.000000 -0.500000
v 0.000000 -1.000000 -0.500000
v 0.000000 -2.000000 -0.500000
v -2.000000 -2.000000 -0.500000
v -2.000000 -1.000000 -0.500000
v -3.000000 -1.000000 -0.500000
v -3.000000 -3.000000 -0.500000
v -4.000000 -3.000000 -0.500000
v -1.000000 -1.000000 -0.500000
v -1.000000 0.000000 -0.500000
v 2.000000 0.000000 -0.500000
v 2.000000 -1.000000 -0.500000
v -2.000000 0.000000 -0.500000
v 3.000000 0.000000 -0.500000
v -1.000000 1.000000 -0.500000
v -3.000000 1.000000 -0.500000
v -3.000000 2.000000 -0.500000
v -2.000000 2.000000 -0.500000
v -2.000000 3.000000 -0.500000
v -1.000000 3.000000 -0.500000
v -1.000000 4.000000 -0.500000
v 2.000000 4.000000 -0.500000
v 2.000000 3.000000 -0.500000
v 0.000000 3.000000 -0.500000
v 0.000000 2.000000 -0.500000
v 1.000000 2.000000 -0.500000
v 1.000000 1.000000 -0.500000
v 2.000000 1.000000 -0.500000
v -3.000000 0.000000 -0.500000
v -4.000000 0.000000 -0.500000
v -4.000000 1.000000 -0.500000
v 3.000000 3.000000 -0.500000
v 3.000000 2.000000 -0.500000
v 4.000000 2.000000 -0.500000
v 4.000000 1.000000 -0.500000
v 5.000000 1.000000 -0.500000
v 5.000000 0.000000 -0.500000
v 4.000000 0.000000 -0.500000
vt 0.114777 0.297166
vt 0.161943 0.250000
vt 0.209109 0.297166
vt 0.438696 0.661943
vt 0.485862 0.709109
vt 0.344364 0.709109
vt 0.608535 0.973280
vt 0.561369 0.973280
vt 0.561369 0.926114
vt 0.856328 0.020446
vt 0.856328 0.067611
vt 0.809163 0.067611
vt 0.161943 0.479571
vt 0.161927 0.526737
vt 0.114761 0.526720
vt 0.485829 0.289073
vt 0.485829 0.241908
vt 0.532995 0.241908
vt 0.784649 0.973280
vt 0.737483 0.973280
vt 0.737483 0.926114
vt 0.668250 0.385223
vt 0.668250 0.432389
vt 0.621084 0.432389
vt 0.913597 0.973280
vt 0.913597 0.926114
vt 0.960763 0.926114
vt 0.256275 0.067611
vt 0.350606 0.067611
vt 0.303440 0.114777
vt 0.114777 0.661992
vt 0.067611 0.661992
vt 0.067611 0.614826
vt 0.696592 0.973280
vt 0.649426 0.973280
vt 0.649426 0.926114
vt 0.385255 0.926114
vt 0.432421 0.926114
vt 0.432421 0.973280
vt 0.344364 0.479555
vt 0.391530 0.526720
vt 0.297198 0.526720
vt 0.519180 0.153851
vt 0.485829 0.120499
vt 0.519180 0.087148
vt 0.844332 0.241908
vt 0.844332 0.194742
vt 0.891497 0.194742
vt 0.621052 0.289073
vt 0.621052 0.241908
vt 0.668218 0.241908
vt 0.979554 0.329965
vt 0.932389 0.329965
vt 0.932389 0.282799
vt 0.932421 0.385223
vt 0.932421 0.432389
vt 0.885255 0.432389
vt 0.872706 0.926114
vt 0.872706 0.973280
vt 0.825540 0.973280
vt 0.844364 0.520446
vt 0.891530 0.520446
vt 0.891530 0.567612
vt 0.756307 0.661943
vt 0.756307 0.709109
vt 0.709141 0.709109
vt 0.561369 0.838057
vt 0.608535 0.838057
vt 0.608535 0.885223
vt 0.844332 0.329965
vt 0.844332 0.282799
vt 0.891497 0.282799
vt 0.756307 0.479555
vt 0.709141 0.479555
vt 0.709141 0.385223
vt 0.715416 0.520446
vt 0.715416 0.567612
vt 0.573919 0.567612
vt 0.932389 0.194742
vt 0.979554 0.194742
vt 0.979554 0.241908
vt 0.297198 0.797166
vt 0.297198 0.750000
vt 0.438696 0.750000
vt 0.520478 0.838057
vt 0.520478 0.885223
vt 0.473312 0.885223
vt 0.649426 0.838057
vt 0.696592 0.838057
vt 0.696592 0.885223
vt 0.784649 0.838057
vt 0.784649 0.885223
vt 0.737483 0.885223
vt 0.385255 0.838057
vt 0.432421 0.838057
vt 0.432421 0.885223
vt 0.196560 0.838106
vt 0.243725 0.838106
vt 0.243725 0.885272
vt 0.913597 0.838057
vt 0.960763 0.838057
vt 0.960763 0.885223
vt 0.108503 0.750049
vt 0.155668 0.750049
vt 0.155668 0.797215
vt 0.473312 0.926114
vt 0.520478 0.926114
vt 0.520478 0.973280
vt 0.661976 0.797166
vt 0.661976 0.750000
vt 0.756307 0.750000
vt 0.067611 0.750049
vt 0.067611 0.797215
vt 0.020446 0.797215
vt 0.844364 0.661943
vt 0.844364 0.709109
vt 0.797198 0.709109
vt 0.196560 0.750049
vt 0.243725 0.750049
vt 0.243725 0.797215
vt 0.932421 0.661943
vt 0.932421 0.709109
vt 0.885255 0.709109
vt 0.797198 0.750000
vt 0.844364 0.750000
vt 0.844364 0.797166
vt 0.844364 0.385223
vt 0.844364 0.432389
vt 0.797198 0.432389
vt 0.067611 0.926163
vt 0.067611 0.973329
vt 0.020446 0.973329
vt 0.668250 0.661943
vt 0.668250 0.709109
vt 0.573919 0.709109
vt 0.479587 0.797166
vt 0.479587 0.750000
vt 0.621084 0.750000
vt 0.897220 0.020446
vt 0.944385 0.020446
vt 0.944385 0.067611
vt 0.803473 0.520446
vt 0.803473 0.567612
vt 0.756307 0.567612
vt 0.825540 0.838057
vt 0.872706 0.838057
vt 0.872706 0.885223
vt 0.756275 0.194742
vt 0.803441 0.194742
vt 0.803441 0.289073
vt 0.297198 0.926114
vt 0.344364 0.926114
vt 0.344364 0.973280
vt 0.626774 0.067611
vt 0.626774 0.020446
vt 0.768271 0.020446
vt 0.020446 0.838106
vt 0.067611 0.838106
vt 0.067611 0.885272
vt 0.297198 0.838057
vt 0.344364 0.838057
vt 0.344364 0.885223
vt 0.155668 0.838106
vt 0.155668 0.885272
vt 0.108503 0.885272
vt 0.196560 0.926163
vt 0.243725 0.926163
vt 0.243725 0.973329
vt 0.885255 0.750000
vt 0.932421 0.750000
vt 0.932421 0.797166
vt 0.108503 0.926163
vt 0.155668 0.926163
vt 0.155668 0.973329
vt 0.397772 0.344332
vt 0.350606 0.344332
vt 0.350606 0.297166
vt 0.256275 0.297166
vt 0.256275 0.344332
vt 0.209109 0.344332
vt 0.397772 0.250000
vt 0.303440 0.250000
vt 0.444938 0.202834
vt 0.444938 0.250000
vt 0.303440 0.202834
vt 0.067611 0.250000
vt 0.161943 0.202834
vt 0.114777 0.344332
vt 0.067611 0.344332
vt 0.020446 0.250000
vt 0.020446 0.202834
vt 0.391530 0.661943
vt 0.344364 0.661943
vt 0.391530 0.614777
vt 0.533027 0.614777
vt 0.485862 0.661943
vt 0.438696 0.614777
vt 0.297198 0.661943
vt 0.297198 0.614777
vt 0.533027 0.661943
vt 0.809163 0.020446
vt 0.608535 0.926114
vt 0.256307 0.385272
vt 0.209125 0.432421
vt 0.114810 0.385223
vt 0.114793 0.432389
vt 0.067611 0.479538
vt 0.020462 0.432356
vt 0.067595 0.526704
vt 0.784649 0.926114
vt 0.256291 0.432438
vt 0.580161 0.289073
vt 0.580161 0.194742
vt 0.114745 0.573886
vt 0.256258 0.526769
vt 0.256242 0.573935
vt 0.209109 0.479587
vt 0.020446 0.479522
vt 0.573919 0.385223
vt 0.573919 0.479555
vt 0.532995 0.194742
vt 0.960763 0.973280
vt 0.209109 0.020446
vt 0.256275 0.020446
vt 0.621084 0.479555
vt 0.067611 0.020446
vt 0.114777 0.020446
vt 0.114777 0.067611
vt 0.209109 0.067611
vt 0.067611 0.114777
vt 0.161943 0.114777
vt 0.350606 0.020446
vt 0.397772 0.020446
vt 0.020446 0.161943
vt 0.020446 0.114777
vt 0.161943 0.709158
vt 0.209109 0.661992
vt 0.256275 0.709158
vt 0.397772 0.114777
vt 0.444938 0.114777
vt 0.444938 0.161943
vt 0.303440 0.161943
vt 0.161943 0.161943
vt 0.256275 0.661992
vt 0.114777 0.709158
vt 0.020446 0.709158
vt 0.161943 0.661992
vt 0.020446 0.661992
vt 0.209109 0.614826
vt 0.696592 0.926114
vt 0.385255 0.973280
vt 0.485862 0.526720
vt 0.533027 0.526720
vt 0.533027 0.573886
vt 0.438696 0.479555
vt 0.485862 0.479555
vt 0.533027 0.385223
vt 0.533027 0.432389
vt 0.438696 0.432389
vt 0.391530 0.573886
vt 0.391530 0.385223
vt 0.391530 0.432389
vt 0.344364 0.432389
vt 0.585883 0.087148
vt 0.519180 0.020446
vt 0.297198 0.479555
vt 0.891497 0.241908
vt 0.715384 0.289073
vt 0.715384 0.194742
vt 0.485829 0.053797
vt 0.979554 0.282799
vt 0.885255 0.385223
vt 0.668218 0.194742
vt 0.825540 0.926114
vt 0.844364 0.567612
vt 0.709141 0.661943
vt 0.561369 0.885223
vt 0.891497 0.329965
vt 0.756307 0.385223
vt 0.573919 0.520446
vt 0.932389 0.241908
vt 0.438696 0.797166
vt 0.473312 0.838057
vt 0.649426 0.885223
vt 0.737483 0.838057
vt 0.385255 0.885223
vt 0.196560 0.885272
vt 0.913597 0.885223
vt 0.108503 0.797215
vt 0.473312 0.973280
vt 0.756307 0.797166
vt 0.020446 0.750049
vt 0.797198 0.661943
vt 0.196560 0.797215
vt 0.885255 0.661943
vt 0.797198 0.797166
vt 0.797198 0.385223
vt 0.020446 0.926163
vt 0.573919 0.661943
vt 0.621084 0.797166
vt 0.897220 0.067611
vt 0.756307 0.520446
vt 0.825540 0.885223
vt 0.756275 0.289073
vt 0.297198 0.973280
vt 0.768271 0.067611
vt 0.020446 0.885272
vt 0.297198 0.885223
vt 0.108503 0.838106
vt 0.196560 0.973329
vt 0.885255 0.797166
vt 0.108503 0.973329
vn 0.000000 0.000000 1.000000
vn 0.000000 0.000000 -1.000000
vn 0.000000 1.000000 0.000000
vn 0.000000 -1.000000 0.000000
vn -1.000000 0.000000 0.000000
vn 1.000000 0.000000 0.000000
s off
f 16/1/1 6/2/1 15/3/1
f 13/4/1 23/5/1 22/6/1
f 22/7/1 25/8/1 17/9/1
f 10/10/1 26/11/1 23/12/1
f 37/13/1 36/14/1 32/15/1
f 36/16/1 37/17/1 38/18/1
f 28/19/1 43/20/1 42/21/1
f 47/22/1 46/23/1 45/24/1
f 47/25/1 50/26/1 49/27/1
f 62/28/2 61/29/2 55/30/2
f 64/31/2 71/32/2 72/33/2
f 67/34/2 75/35/2 72/36/2
f 73/37/2 76/38/2 60/39/2
f 80/40/2 77/41/2 78/42/2
f 90/43/2 89/44/2 88/45/2
f 92/46/2 93/47/2 78/48/2
f 85/49/2 94/50/2 95/51/2
f 99/52/2 100/53/2 97/54/2
f 44/55/3 94/56/3 85/57/3
f 30/58/3 80/59/3 79/60/3
f 50/61/4 100/62/4 99/63/4
f 2/64/3 52/65/3 51/66/3
f 27/67/5 77/68/5 72/69/5
f 42/70/4 92/71/4 91/72/4
f 40/73/4 90/74/4 97/75/4
f 34/76/3 84/77/3 83/78/3
f 20/79/5 70/80/5 58/81/5
f 6/82/4 56/83/4 55/84/4
f 22/85/3 72/86/3 75/87/3
f 23/88/6 73/89/6 90/90/6
f 17/91/3 67/92/3 68/93/3
f 31/94/5 81/95/5 80/96/5
f 45/97/6 95/98/6 94/99/6
f 47/100/5 97/101/5 100/102/5
f 3/103/6 53/104/6 52/105/6
f 43/106/5 93/107/5 92/108/5
f 28/109/4 78/110/4 77/111/4
f 48/112/3 98/113/3 97/114/3
f 9/115/3 59/116/3 60/117/3
f 35/118/6 85/119/6 84/120/6
f 26/121/3 76/122/3 73/123/3
f 7/124/6 57/125/6 56/126/6
f 32/127/3 82/128/3 81/129/3
f 46/130/3 96/131/3 95/132/3
f 18/133/5 68/134/5 69/135/5
f 4/136/4 54/137/4 53/138/4
f 29/139/5 79/140/5 78/141/5
f 28/142/3 78/143/3 93/144/3
f 49/145/6 99/146/6 98/147/6
f 1/148/6 51/149/6 59/150/6
f 41/151/6 91/152/6 78/153/6
f 8/154/4 58/155/4 57/156/4
f 10/157/6 60/158/6 76/159/6
f 47/160/6 97/161/6 96/162/6
f 19/163/3 69/164/3 70/165/3
f 33/166/5 83/167/5 82/168/5
f 25/169/5 75/170/5 67/171/5
f 5/172/5 55/173/5 54/174/5
f 9/175/1 10/176/1 11/177/1
f 12/178/1 13/179/1 14/180/1
f 1/181/1 9/175/1 11/177/1
f 12/178/1 14/180/1 15/3/1
f 12/178/1 5/182/1 11/177/1
f 3/183/1 2/184/1 1/181/1
f 3/183/1 1/181/1 4/185/1
f 6/2/1 19/186/1 7/187/1
f 16/1/1 17/188/1 18/189/1
f 19/186/1 20/190/1 8/191/1
f 6/2/1 12/178/1 15/3/1
f 1/181/1 5/182/1 4/185/1
f 19/186/1 16/1/1 18/189/1
f 14/192/1 21/193/1 15/194/1
f 11/195/1 24/196/1 12/197/1
f 12/178/1 6/2/1 5/182/1
f 19/186/1 8/191/1 7/187/1
f 5/182/1 1/181/1 11/177/1
f 16/1/1 19/186/1 6/2/1
f 21/193/1 17/198/1 16/199/1
f 11/195/1 10/200/1 24/196/1
f 24/196/1 13/4/1 12/197/1
f 24/201/1 10/10/1 23/12/1
f 13/4/1 22/6/1 14/192/1
f 21/193/1 16/199/1 15/194/1
f 13/4/1 24/196/1 23/5/1
f 22/6/1 21/193/1 14/192/1
f 21/202/1 22/7/1 17/9/1
f 23/203/1 39/204/1 22/205/1
f 27/206/1 30/207/1 28/208/1
f 32/15/1 31/209/1 30/207/1
f 41/210/1 28/19/1 42/21/1
f 23/203/1 40/211/1 39/204/1
f 35/212/1 38/18/1 40/213/1
f 32/15/1 36/14/1 33/214/1
f 27/206/1 39/204/1 37/13/1
f 36/14/1 35/215/1 34/216/1
f 39/204/1 38/217/1 37/13/1
f 39/204/1 27/206/1 22/205/1
f 30/207/1 27/206/1 37/13/1
f 30/207/1 37/13/1 32/15/1
f 30/207/1 29/218/1 28/208/1
f 36/14/1 34/216/1 33/214/1
f 40/219/1 45/24/1 35/220/1
f 35/212/1 36/16/1 38/18/1
f 38/18/1 39/221/1 40/213/1
f 48/222/1 47/25/1 49/27/1
f 64/223/2 63/224/2 62/28/2
f 40/219/1 47/22/1 45/24/1
f 45/24/1 44/225/1 35/220/1
f 68/226/2 67/227/2 66/228/2
f 65/229/2 64/223/2 62/28/2
f 69/230/2 68/226/2 66/228/2
f 62/28/2 56/231/2 65/229/2
f 61/29/2 60/232/2 59/233/2
f 56/231/2 66/228/2 65/229/2
f 58/234/2 70/235/2 69/230/2
f 62/236/2 74/237/2 61/238/2
f 61/29/2 59/233/2 51/239/2
f 51/239/2 52/240/2 53/241/2
f 55/30/2 51/239/2 54/242/2
f 58/234/2 69/230/2 57/243/2
f 69/230/2 56/231/2 57/243/2
f 74/237/2 60/244/2 61/238/2
f 56/231/2 62/28/2 55/30/2
f 61/29/2 51/239/2 55/30/2
f 51/239/2 53/241/2 54/242/2
f 56/231/2 69/230/2 66/228/2
f 71/32/2 64/31/2 65/245/2
f 66/246/2 71/32/2 65/245/2
f 74/237/2 62/236/2 63/247/2
f 67/248/2 71/32/2 66/246/2
f 64/31/2 73/249/2 63/247/2
f 64/31/2 72/33/2 73/249/2
f 73/249/2 74/237/2 63/247/2
f 71/250/2 67/34/2 72/36/2
f 74/251/2 73/37/2 60/39/2
f 89/252/2 90/253/2 73/254/2
f 87/255/2 88/256/2 89/252/2
f 84/257/2 85/258/2 86/259/2
f 73/254/2 72/260/2 89/252/2
f 83/261/2 84/257/2 86/259/2
f 82/262/2 83/261/2 86/259/2
f 87/255/2 82/262/2 86/259/2
f 80/40/2 81/263/2 82/262/2
f 85/264/2 88/45/2 86/265/2
f 87/255/2 89/252/2 77/41/2
f 79/266/2 80/40/2 78/42/2
f 80/40/2 82/262/2 87/255/2
f 89/252/2 72/260/2 77/41/2
f 77/41/2 80/40/2 87/255/2
f 91/267/2 92/46/2 78/48/2
f 90/268/2 95/51/2 97/269/2
f 85/264/2 90/43/2 88/45/2
f 88/45/2 87/270/2 86/265/2
f 98/271/2 99/52/2 97/54/2
f 35/272/3 44/55/3 85/57/3
f 90/268/2 85/49/2 95/51/2
f 95/51/2 96/273/2 97/269/2
f 29/274/3 30/58/3 79/60/3
f 49/275/4 50/61/4 99/63/4
f 1/276/3 2/64/3 51/66/3
f 22/277/5 27/67/5 72/69/5
f 41/278/4 42/70/4 91/72/4
f 47/279/4 40/73/4 97/75/4
f 33/280/3 34/76/3 83/78/3
f 8/281/5 20/79/5 58/81/5
f 5/282/4 6/82/4 55/84/4
f 25/283/3 22/85/3 75/87/3
f 40/284/6 23/88/6 90/90/6
f 18/285/3 17/91/3 68/93/3
f 30/286/5 31/94/5 80/96/5
f 44/287/6 45/97/6 94/99/6
f 50/288/5 47/100/5 100/102/5
f 2/289/6 3/103/6 52/105/6
f 42/290/5 43/106/5 92/108/5
f 27/291/4 28/109/4 77/111/4
f 47/292/3 48/112/3 97/114/3
f 10/293/3 9/115/3 60/117/3
f 34/294/6 35/118/6 84/120/6
f 23/295/3 26/121/3 73/123/3
f 6/296/6 7/124/6 56/126/6
f 31/297/3 32/127/3 81/129/3
f 45/298/3 46/130/3 95/132/3
f 19/299/5 18/133/5 69/135/5
f 3/300/4 4/136/4 53/138/4
f 28/301/5 29/139/5 78/141/5
f 43/302/3 28/142/3 93/144/3
f 48/303/6 49/145/6 98/147/6
f 9/304/6 1/148/6 59/150/6
f 28/305/6 41/151/6 78/153/6
f 7/306/4 8/154/4 57/156/4
f 26/307/6 10/157/6 76/159/6
f 46/308/6 47/160/6 96/162/6
f 20/309/3 19/163/3 70/165/3
f 32/310/5 33/166/5 82/168/5
f 17/311/5 25/169/5 67/171/5
f 4/312/5 5/172/5 54/174/5
