# Blender v2.72 (sub 0) OBJ File: 'room.blend'
# www.blender.org
o Sphere
v -0.309017 -0.951057 0.000000
v -0.250000 0.951057 -0.181636
v -0.475528 0.809017 -0.345492
v -0.654508 0.587785 -0.475528
v -0.769421 0.309017 -0.559017
v -0.809017 -0.000000 -0.587785
v -0.769421 -0.309017 -0.559017
v -0.654508 -0.587785 -0.475528
v -0.475528 -0.809017 -0.345492
v -0.250000 -0.951057 -0.181636
v -0.095491 0.951057 -0.293893
v -0.181635 0.809017 -0.559017
v -0.250000 0.587785 -0.769421
v -0.293892 0.309017 -0.904509
v -0.309017 -0.000000 -0.951057
v -0.293892 -0.309017 -0.904509
v -0.250000 -0.587785 -0.769421
v -0.181635 -0.809017 -0.559017
v -0.095491 -0.951057 -0.293893
v 0.095492 0.951057 -0.293893
v 0.181636 0.809017 -0.559017
v 0.250000 0.587785 -0.769421
v 0.293893 0.309017 -0.904509
v 0.309017 -0.000000 -0.951057
v 0.293893 -0.309017 -0.904509
v 0.250000 -0.587785 -0.769421
v 0.181636 -0.809017 -0.559017
v 0.095492 -0.951057 -0.293893
v 0.250001 0.951057 -0.181636
v 0.475529 0.809017 -0.345492
v 0.654509 0.587785 -0.475528
v 0.769421 0.309017 -0.559017
v 0.809017 -0.000000 -0.587785
v 0.769421 -0.309017 -0.559017
v 0.654509 -0.587785 -0.475528
v 0.475529 -0.809017 -0.345492
v 0.250000 -0.951057 -0.181636
v 0.309018 0.951057 -0.000000
v 0.587786 0.809017 -0.000000
v 0.809018 0.587785 0.000000
v 0.951057 0.309017 -0.000000
v 1.000001 -0.000000 -0.000000
v 0.951057 -0.309017 0.000000
v 0.809018 -0.587785 0.000000
v 0.587786 -0.809017 -0.000000
v 0.309017 -0.951057 -0.000000
v 0.000000 -1.000000 0.000000
v -0.587785 -0.809017 0.158171
v -0.809017 -0.587785 0.158171
v -0.951057 -0.309017 0.158171
v -1.000000 -0.000000 0.158171
v -0.951057 0.309017 0.158171
v -0.809017 0.587785 0.158171
v -0.587785 0.809017 0.158171
v -0.309017 0.951057 0.158171
v 0.000000 1.000000 0.158171
v 0.000000 -1.000000 0.158171
v 0.309017 -0.951057 0.158171
v 0.000000 1.000000 0.000000
v 0.587786 -0.809017 0.158171
v 0.809018 -0.587785 0.158171
v 0.951057 -0.309017 0.158171
v 1.000001 -0.000000 0.158171
v 0.951057 0.309017 0.158171
v 0.809018 0.587785 0.158171
v 0.587786 0.809017 0.158171
v 0.309018 0.951057 0.158171
v -0.309017 -0.951057 0.158171
v -0.309017 0.951057 0.000000
v -0.587785 0.809017 0.000000
v -0.809017 0.587785 0.000000
v -0.951057 0.309017 0.000000
v -1.000000 -0.000000 0.000000
v -0.951057 -0.309017 -0.000000
v -0.809017 -0.587785 0.000000
v -0.587785 -0.809017 0.000000
vt 0.267257 0.757552
vt 0.377467 0.757086
vt 0.351718 0.848446
vt 0.246125 0.665015
vt 0.397815 0.664373
vt 0.232411 0.571091
vt 0.410734 0.570337
vt 0.232237 0.478310
vt 0.410753 0.477023
vt 0.232018 0.384176
vt 0.410795 0.383550
vt 0.245038 0.289910
vt 0.397115 0.289377
vt 0.265506 0.196977
vt 0.375996 0.196590
vt 0.291386 0.105403
vt 0.349474 0.105199
vt 0.445521 0.756969
vt 0.555823 0.756554
vt 0.530010 0.847978
vt 0.424415 0.664345
vt 0.576232 0.663774
vt 0.589206 0.569666
vt 0.589248 0.476193
vt 0.589266 0.382879
vt 0.423769 0.289442
vt 0.575585 0.288871
vt 0.444178 0.196662
vt 0.554479 0.196247
vt 0.469991 0.105238
vt 0.527980 0.105020
vt 0.624004 0.756626
vt 0.734495 0.756239
vt 0.708614 0.847813
vt 0.602886 0.663839
vt 0.754963 0.663306
vt 0.767983 0.569040
vt 0.767763 0.474906
vt 0.767589 0.382125
vt 0.602185 0.288843
vt 0.753876 0.288202
vt 0.622534 0.196131
vt 0.732744 0.195665
vt 0.648283 0.104771
vt 0.706223 0.104526
vt 0.809351 0.757045
vt 0.919702 0.750645
vt 0.900344 0.843598
vt 0.783964 0.664052
vt 0.934956 0.658062
vt 0.944553 0.565573
vt 0.947496 0.472683
vt 0.942797 0.381351
vt 0.781800 0.287481
vt 0.931586 0.290256
vt 0.805680 0.194679
vt 0.915141 0.199292
vt 0.837110 0.104223
vt 0.895001 0.107976
vt 0.065044 0.295154
vt 0.055447 0.387644
vt 0.007511 0.384701
vt 0.961670 0.189934
vt 0.978343 0.283055
vt 0.057203 0.571866
vt 0.010059 0.576177
vt 0.004833 0.481191
vt 0.989941 0.377040
vt 0.099656 0.109618
vt 0.051973 0.099321
vt 0.073406 0.004833
vt 0.068415 0.662961
vt 0.084860 0.753925
vt 0.038330 0.763283
vt 0.992489 0.568515
vt 0.127034 0.937357
vt 0.080275 0.948380
vt 0.058469 0.855887
vt 0.967358 0.759321
vt 0.948027 0.853895
vt 0.105000 0.845241
vt 0.162891 0.848994
vt 0.194321 0.758538
vt 0.218201 0.665736
vt 0.052504 0.480534
vt 0.216036 0.289164
vt 0.080298 0.202571
vt 0.190649 0.196171
vt 0.158089 0.105334
vt 0.121281 0.015802
vt 0.323130 0.938958
vt 0.293777 0.848691
vt 0.320113 0.014681
vt 0.501356 0.938552
vt 0.472021 0.848196
vt 0.498645 0.014664
vt 0.679888 0.938534
vt 0.650526 0.848017
vt 0.676871 0.014259
vt 0.878719 0.937414
vt 0.841911 0.847881
vt 0.872967 0.015860
vt 0.017259 0.288960
vt 0.032642 0.193895
vt 0.941532 0.097330
vt 0.919726 0.004837
vt 0.021657 0.670162
vt 0.995167 0.472025
vt 0.982741 0.664257
vt 0.926594 0.948382
vn -0.491400 -0.794400 -0.357000
vn -0.187700 -0.794400 -0.577700
vn -0.104000 -0.941600 -0.320200
vn -0.662700 -0.573500 -0.481500
vn -0.253100 -0.573500 -0.779100
vn -0.771700 -0.300300 -0.560600
vn -0.294700 -0.300300 -0.907100
vn -0.809000 0.000000 -0.587800
vn -0.309000 0.000000 -0.951000
vn -0.771700 0.300300 -0.560600
vn -0.294700 0.300300 -0.907100
vn -0.662700 0.573500 -0.481500
vn -0.253100 0.573500 -0.779100
vn -0.491400 0.794400 -0.357000
vn -0.187700 0.794400 -0.577700
vn -0.272400 0.941600 -0.197900
vn -0.104000 0.941600 -0.320200
vn 0.187700 -0.794400 -0.577700
vn 0.104000 -0.941600 -0.320200
vn 0.253100 -0.573500 -0.779100
vn 0.294700 -0.300300 -0.907100
vn 0.309000 0.000000 -0.951000
vn 0.294700 0.300300 -0.907100
vn 0.253100 0.573500 -0.779100
vn 0.187700 0.794400 -0.577700
vn 0.104000 0.941600 -0.320200
vn 0.491400 -0.794400 -0.357000
vn 0.272400 -0.941600 -0.197900
vn 0.662700 -0.573500 -0.481500
vn 0.771700 -0.300300 -0.560600
vn 0.809000 0.000000 -0.587800
vn 0.771700 0.300300 -0.560600
vn 0.662700 0.573500 -0.481500
vn 0.491400 0.794400 -0.357000
vn 0.272400 0.941600 -0.197900
vn 0.594700 -0.798200 -0.096300
vn 0.322300 -0.945100 -0.054200
vn 0.807300 -0.576100 -0.128100
vn 0.942000 -0.301500 -0.147500
vn 0.988000 0.000000 -0.154100
vn 0.942000 0.301500 -0.147500
vn 0.807300 0.576100 -0.128100
vn 0.594700 0.798200 -0.096300
vn 0.322300 0.945100 -0.054200
vn -0.807300 0.576100 -0.128100
vn -0.942000 0.301500 -0.147500
vn -0.951100 0.309000 0.000000
vn 0.587800 0.809000 0.000000
vn 0.809000 0.587800 0.000000
vn -0.942000 -0.301500 -0.147500
vn -0.951100 -0.309000 0.000000
vn -1.000000 0.000000 0.000000
vn 0.951100 0.309000 0.000000
vn -0.322300 0.945100 -0.054200
vn -0.309000 0.951100 0.000000
vn -0.000000 1.000000 0.000000
vn -0.807300 -0.576100 -0.128100
vn -0.594700 -0.798200 -0.096300
vn -0.587800 -0.809000 0.000000
vn 0.951100 -0.309000 0.000000
vn 0.000000 -0.998600 -0.053400
vn 0.000000 -1.000000 0.000000
vn -0.309000 -0.951100 0.000000
vn 0.587800 -0.809000 0.000000
vn 0.309000 -0.951100 0.000000
vn -0.322300 -0.945100 -0.054200
vn -0.272400 -0.941600 -0.197900
vn -0.988000 0.000000 -0.154100
vn -0.594700 0.798200 -0.096300
vn 0.000000 0.998600 -0.053400
vn -0.809000 0.587800 0.000000
vn -0.587800 0.809000 0.000000
vn 0.309000 0.951100 0.000000
vn -0.809000 -0.587800 0.000000
vn 1.000000 0.000000 0.000000
vn 0.809000 -0.587800 0.000000
s 1
f 9/1/1 18/2/2 19/3/3
f 9/1/1 8/4/4 17/5/5
f 8/4/4 7/6/6 16/7/7
f 7/6/6 6/8/8 15/9/9
f 5/10/10 14/11/11 15/9/9
f 5/10/10 4/12/12 13/13/13
f 3/14/14 12/15/15 13/13/13
f 2/16/16 11/17/17 12/15/15
f 18/18/2 27/19/18 28/20/19
f 18/18/2 17/21/5 26/22/20
f 16/7/7 25/23/21 26/22/20
f 15/9/9 24/24/22 25/23/21
f 15/9/9 14/11/11 23/25/23
f 13/26/13 22/27/24 23/25/23
f 12/28/15 21/29/25 22/27/24
f 11/30/17 20/31/26 21/29/25
f 27/32/18 36/33/27 37/34/28
f 27/32/18 26/35/20 35/36/29
f 25/23/21 34/37/30 35/36/29
f 24/24/22 33/38/31 34/37/30
f 24/24/22 23/25/23 32/39/32
f 23/25/23 22/40/24 31/41/33
f 21/42/25 30/43/34 31/41/33
f 21/42/25 20/44/26 29/45/35
f 36/46/27 45/47/36 46/48/37
f 36/46/27 35/49/29 44/50/38
f 35/49/29 34/37/30 43/51/39
f 33/38/31 42/52/40 43/51/39
f 33/38/31 32/39/32 41/53/41
f 32/39/32 31/54/33 40/55/42
f 30/56/34 39/57/43 40/55/42
f 29/58/35 38/59/44 39/57/43
f 71/60/45 72/61/46 52/62/47
f 39/57/43 66/63/48 65/64/49
f 74/65/50 50/66/51 51/67/52
f 42/52/40 41/53/41 64/68/53
f 69/69/54 55/70/55 56/71/56
f 75/72/57 76/73/58 48/74/59
f 44/50/38 43/51/39 62/75/60
f 47/76/61 57/77/62 68/78/63
f 45/47/36 60/79/64 58/80/65
f 47/76/61 1/81/66 10/82/67
f 76/73/58 9/83/1 10/82/67
f 75/72/57 8/84/4 9/83/1
f 74/65/50 7/6/6 8/84/4
f 73/85/68 6/8/8 7/6/6
f 73/85/68 72/61/46 5/10/10
f 71/60/45 4/86/12 5/10/10
f 70/87/69 3/88/14 4/86/12
f 69/69/54 2/89/16 3/88/14
f 69/69/54 59/90/70 2/89/16
f 47/91/61 10/92/67 19/3/3
f 2/16/16 59/93/70 11/17/17
f 47/94/61 19/95/3 28/20/19
f 11/30/17 59/96/70 20/31/26
f 47/97/61 28/98/19 37/34/28
f 20/44/26 59/99/70 29/45/35
f 47/100/61 37/101/28 46/48/37
f 29/58/35 59/102/70 38/59/44
f 71/60/45 53/103/71 54/104/72
f 38/59/44 67/105/73 66/63/48
f 38/59/44 59/102/70 56/106/56
f 72/61/46 73/85/68 51/67/52
f 41/53/41 40/55/42 65/64/49
f 74/65/50 75/72/57 49/107/74
f 42/52/40 63/108/75 62/75/60
f 1/81/66 68/78/63 48/74/59
f 45/47/36 44/50/38 61/109/76
f 46/48/37 58/80/65 57/110/62
f 69/69/54 70/87/69 54/104/72
f 10/92/67 9/1/1 19/3/3
f 18/2/2 9/1/1 17/5/5
f 17/5/5 8/4/4 16/7/7
f 16/7/7 7/6/6 15/9/9
f 6/8/8 5/10/10 15/9/9
f 14/11/11 5/10/10 13/13/13
f 4/12/12 3/14/14 13/13/13
f 3/14/14 2/16/16 12/15/15
f 19/95/3 18/18/2 28/20/19
f 27/19/18 18/18/2 26/22/20
f 17/21/5 16/7/7 26/22/20
f 16/7/7 15/9/9 25/23/21
f 24/24/22 15/9/9 23/25/23
f 14/11/11 13/26/13 23/25/23
f 13/26/13 12/28/15 22/27/24
f 12/28/15 11/30/17 21/29/25
f 28/98/19 27/32/18 37/34/28
f 36/33/27 27/32/18 35/36/29
f 26/35/20 25/23/21 35/36/29
f 25/23/21 24/24/22 34/37/30
f 33/38/31 24/24/22 32/39/32
f 32/39/32 23/25/23 31/41/33
f 22/40/24 21/42/25 31/41/33
f 30/43/34 21/42/25 29/45/35
f 37/101/28 36/46/27 46/48/37
f 45/47/36 36/46/27 44/50/38
f 44/50/38 35/49/29 43/51/39
f 34/37/30 33/38/31 43/51/39
f 42/52/40 33/38/31 41/53/41
f 41/53/41 32/39/32 40/55/42
f 31/54/33 30/56/34 40/55/42
f 30/56/34 29/58/35 39/57/43
f 53/103/71 71/60/45 52/62/47
f 40/55/42 39/57/43 65/64/49
f 73/85/68 74/65/50 51/67/52
f 63/108/75 42/52/40 64/68/53
f 59/90/70 69/69/54 56/71/56
f 49/107/74 75/72/57 48/74/59
f 61/109/76 44/50/38 62/75/60
f 1/81/66 47/76/61 68/78/63
f 46/48/37 45/47/36 58/80/65
f 1/81/66 76/73/58 10/82/67
f 76/73/58 75/72/57 9/83/1
f 75/72/57 74/65/50 8/84/4
f 74/65/50 73/85/68 7/6/6
f 6/8/8 73/85/68 5/10/10
f 72/61/46 71/60/45 5/10/10
f 71/60/45 70/87/69 4/86/12
f 70/87/69 69/69/54 3/88/14
f 70/87/69 71/60/45 54/104/72
f 39/57/43 38/59/44 66/63/48
f 67/105/73 38/59/44 56/106/56
f 52/62/47 72/61/46 51/67/52
f 64/68/53 41/53/41 65/64/49
f 50/66/51 74/65/50 49/107/74
f 43/51/39 42/52/40 62/75/60
f 76/73/58 1/81/66 48/74/59
f 60/79/64 45/47/36 61/109/76
f 47/100/61 46/48/37 57/110/62
f 55/70/55 69/69/54 54/104/72
