# Blender v2.72 (sub 0) OBJ File: 'room.blend'
# www.blender.org
o Cube.001
v -0.100000 -1.500000 2.000000
v -0.100000 -1.500000 -2.000000
v -0.100000 1.500000 2.000000
v -0.100000 1.500000 -2.000000
v 0.000000 -2.000000 2.500000
v 0.000000 -2.000000 -2.500000
v 0.000000 2.000000 2.500000
v 0.000000 2.000000 -2.500000
v -0.300000 -1.500000 2.000000
v -0.300000 -1.500000 -2.000000
v -0.300000 1.500000 2.000000
v -0.300000 1.500000 -2.000000
v -0.300000 -2.000000 2.500000
v -0.300000 -2.000000 -2.500000
v -0.300000 2.000000 2.500000
v -0.300000 2.000000 -2.500000
v -0.400000 -1.600000 2.100000
v -0.400000 -1.600000 -2.100000
v -0.400000 1.600000 2.100000
v -0.400000 1.600000 -2.100000
v -0.400000 -1.900000 2.400000
v -0.400000 -1.900000 -2.400000
v -0.400000 1.900000 2.400000
v -0.400000 1.900000 -2.400000
vt 0.554230 0.001696
vt 0.554230 0.416097
vt 0.001696 0.416097
vt 0.678551 0.661061
vt 0.015510 0.661061
vt 0.056950 0.619620
vt 0.956864 0.972023
vt 0.956864 0.419489
vt 0.998304 0.419489
vt 0.692364 0.460929
vt 0.001696 0.460929
vt 0.001696 0.419489
vt 0.737197 0.419489
vt 0.737197 0.972023
vt 0.695757 0.972023
vt 0.001696 0.680596
vt 0.692364 0.680596
vt 0.692364 0.722036
vt 0.937329 0.958209
vt 0.937328 0.433303
vt 0.678551 0.480465
vt 0.015509 0.480464
vt 0.756732 0.433303
vt 0.756732 0.958209
vt 0.623297 0.600086
vt 0.070763 0.600085
vt 0.070763 0.572459
vt 0.817707 0.902956
vt 0.817707 0.488556
vt 0.845334 0.488556
vt 0.070763 0.541439
vt 0.623297 0.541440
vt 0.623297 0.569066
vt 0.876353 0.488556
vt 0.876354 0.902956
vt 0.848727 0.902956
vt 0.798172 0.474743
vt 0.637110 0.521905
vt 0.895889 0.916769
vt 0.637111 0.619621
vt 0.798172 0.916769
vt 0.056950 0.521904
vt 0.895888 0.474743
vt 0.001696 0.001696
vt 0.998304 0.972023
vt 0.692364 0.419489
vt 0.695757 0.419489
vt 0.001696 0.722036
vt 0.623297 0.572459
vt 0.845334 0.902956
vt 0.070763 0.569066
vt 0.848726 0.488556
vn -1.000000 0.000000 0.000000
vn 0.000000 0.000000 1.000000
vn 0.000000 1.000000 0.000000
vn 0.000000 0.000000 -1.000000
vn 0.000000 -1.000000 0.000000
vn -0.707100 0.000000 0.707100
vn -0.707100 0.707100 0.000000
vn -0.707100 0.000000 -0.707100
vn -0.707100 -0.707100 0.000000
s off
f 4/1/1 2/2/1 1/3/1
f 22/4/1 21/5/1 17/6/1
f 15/7/2 13/8/2 5/9/2
f 16/10/3 15/11/3 7/12/3
f 14/13/4 16/14/4 8/15/4
f 13/16/5 14/17/5 6/18/5
f 15/7/6 23/19/6 21/20/6
f 16/10/7 24/21/7 23/22/7
f 14/13/8 22/23/8 24/24/8
f 13/16/9 21/5/9 22/4/9
f 10/25/3 9/26/3 1/27/3
f 12/28/2 10/29/2 2/30/2
f 11/31/5 12/32/5 4/33/5
f 9/34/4 11/35/4 3/36/4
f 24/24/1 22/23/1 18/37/1
f 23/22/1 24/21/1 20/38/1
f 21/20/1 23/19/1 19/39/1
f 9/26/7 10/25/7 18/40/7
f 12/28/6 20/41/6 18/37/6
f 12/32/9 11/31/9 19/42/9
f 9/34/8 17/43/8 19/39/8
f 3/44/1 4/1/1 1/3/1
f 18/40/1 22/4/1 17/6/1
f 7/45/2 15/7/2 5/9/2
f 8/46/3 16/10/3 7/12/3
f 6/47/4 14/13/4 8/15/4
f 5/48/5 13/16/5 6/18/5
f 13/8/6 15/7/6 21/20/6
f 15/11/7 16/10/7 23/22/7
f 16/14/8 14/13/8 24/24/8
f 14/17/9 13/16/9 22/4/9
f 2/49/3 10/25/3 1/27/3
f 4/50/2 12/28/2 2/30/2
f 3/51/5 11/31/5 4/33/5
f 1/52/4 9/34/4 3/36/4
f 20/41/1 24/24/1 18/37/1
f 19/42/1 23/22/1 20/38/1
f 17/43/1 21/20/1 19/39/1
f 17/6/7 9/26/7 18/40/7
f 10/29/6 12/28/6 18/37/6
f 20/38/9 12/32/9 19/42/9
f 11/35/8 9/34/8 19/39/8
