# Blender v2.72 (sub 0) OBJ File: 'room.blend'
# www.blender.org
o Cube
v 2.000000 0.000000 -1.000000
v -2.000000 0.000000 -1.000000
v -2.000000 0.000000 4.000000
v 2.000000 0.000000 4.000000
v 2.000000 6.000000 4.000000
v 2.000000 6.000000 -4.000000
v 2.000000 5.000000 -4.000000
v 2.000000 5.000000 2.000000
v 2.000000 2.000000 2.000000
v 2.000000 2.000000 -1.000000
v 2.000000 0.000000 -4.000000
v -2.000000 0.000000 -4.000000
v -2.000000 6.000000 -1.000000
v -2.000000 6.000000 4.000000
v 2.500000 0.000000 -1.000000
v 2.500000 2.000000 -1.000000
v 2.500000 6.000000 -4.000000
v 2.500000 5.000000 -4.000000
v 2.500000 0.000000 -4.000000
v -2.000000 6.000000 -4.000000
v 2.500000 0.000000 4.000000
v 2.500000 2.000000 2.000000
v 2.500000 5.000000 2.000000
v 2.500000 6.000000 4.000000
v 10.000000 0.000000 -1.000000
v 10.000000 0.000000 -4.000000
v 10.000000 0.000000 4.000000
v 10.000000 6.000000 4.000000
v 2.500000 0.000000 -8.000000
v 2.500000 6.000000 -8.000000
v 10.000000 0.000000 -8.000000
v 10.000000 6.000000 -1.000000
v 10.000000 6.000000 -4.000000
v 10.000000 6.000000 -8.000000
v 10.000000 -0.500000 -4.000000
v 2.500000 -0.500000 -8.000000
v 10.000000 -0.500000 -8.000000
v 11.000000 -0.500000 -4.000000
v 2.500000 -0.500000 -9.000000
v 11.000000 -0.500000 -9.000000
v 11.000000 -1.000000 -4.000000
v 2.500000 -1.000000 -9.000000
v 11.000000 -1.000000 -9.000000
v 12.000000 -1.000000 -4.000000
v 2.500000 -1.000000 -10.000000
v 12.000000 -1.000000 -10.000000
v 12.000000 -1.500000 -4.000000
v 2.500000 -1.500000 -10.000000
v 12.000000 -1.500000 -10.000000
v 16.000000 -1.500000 -4.000000
v 2.500000 -1.500000 -15.000000
v 16.000000 -1.500000 -15.000000
v 2.500000 7.000000 -8.000000
v 10.000000 7.000000 -4.000000
v 10.000000 7.000000 -8.000000
v 16.000000 7.000000 -4.000000
v 2.500000 7.000000 -15.000000
v 16.000000 7.000000 -15.000000
vt 0.752901 0.959880
vt 0.632836 0.959880
vt 0.632836 0.863828
vt 0.668855 0.286924
vt 0.716881 0.310937
vt 0.716881 0.382976
vt 0.824940 0.959880
vt 0.752901 0.863828
vt 0.124166 0.747567
vt 0.124166 0.891646
vt 0.004101 0.891646
vt 0.965213 0.286924
vt 0.965213 0.431002
vt 0.869161 0.431002
vt 0.312465 0.687535
vt 0.312465 0.735561
vt 0.300459 0.735561
vt 0.456543 0.679333
vt 0.528582 0.499236
vt 0.528582 0.679333
vt 0.548790 0.872029
vt 0.548790 0.860023
vt 0.620829 0.860023
vt 0.196205 0.747567
vt 0.196205 0.891645
vt 0.336478 0.687535
vt 0.384504 0.735561
vt 0.336478 0.831613
vt 0.312465 0.559268
vt 0.312465 0.679334
vt 0.300459 0.679334
vt 0.124166 0.739366
vt 0.124166 0.559268
vt 0.196205 0.559268
vt 0.953207 0.679333
vt 0.809129 0.679333
vt 0.809129 0.499236
vt 0.004101 0.739366
vt 0.004101 0.559268
vt 0.300459 0.747567
vt 0.300459 0.867632
vt 0.204407 0.891646
vt 0.292257 0.559268
vt 0.292257 0.739366
vt 0.936110 0.076140
vt 0.792032 0.076140
vt 0.792032 0.004101
vt 0.936110 0.196205
vt 0.792032 0.196205
vt 0.848952 0.439203
vt 0.848952 0.451210
vt 0.668855 0.451210
vt 0.945004 0.439203
vt 0.945004 0.451210
vt 0.308660 0.747567
vt 0.320667 0.747567
vt 0.320667 0.819606
vt 0.812934 0.459412
vt 0.812934 0.471418
vt 0.668855 0.471418
vt 0.620829 0.839815
vt 0.620829 0.851821
vt 0.548790 0.851821
vt 0.004101 0.995899
vt 0.004101 0.899847
vt 0.124166 0.899847
vt 0.300459 0.891645
vt 0.528582 0.807600
vt 0.624634 0.831613
vt 0.528582 0.831613
vt 0.528582 0.687535
vt 0.624634 0.687535
vt 0.516575 0.839815
vt 0.540588 0.839815
vt 0.540588 0.959880
vt 0.336478 0.935867
vt 0.516575 0.935867
vt 0.963928 0.248628
vt 0.963928 0.260634
vt 0.843862 0.260634
vt 0.843862 0.248628
vt 0.639752 0.260634
vt 0.836946 0.711548
vt 0.860959 0.711548
vt 0.860959 0.855626
vt 0.632836 0.831613
vt 0.836946 0.831613
vt 0.708680 0.968082
vt 0.708680 0.980088
vt 0.564601 0.980088
vt 0.564601 0.968082
vt 0.336478 0.980088
vt 0.338027 0.004101
vt 0.419238 0.055392
vt 0.278188 0.278722
vt 0.068215 0.004101
vt 0.261091 0.125917
vt 0.819850 0.240426
vt 0.819850 0.216413
vt 0.915902 0.216413
vt 0.639752 0.240426
vt 0.639752 0.216413
vt 0.631551 0.268244
vt 0.427440 0.268244
vt 0.427440 0.004101
vt 0.660654 0.286924
vt 0.660654 0.491034
vt 0.336478 0.491034
vt 0.735804 0.016107
vt 0.639752 0.208211
vt 0.639752 0.004101
vt 0.632836 0.535255
vt 0.632836 0.523249
vt 0.656849 0.523249
vt 0.184198 0.455015
vt 0.004101 0.455015
vt 0.004101 0.286924
vt 0.788920 0.382976
vt 0.788920 0.431002
vt 0.860959 0.286924
vt 0.860959 0.310937
vt 0.668855 0.431002
vt 0.004101 0.747567
vt 0.824940 0.863828
vt 0.869161 0.286924
vt 0.300459 0.687535
vt 0.336478 0.499236
vt 0.624634 0.499236
vt 0.624634 0.679333
vt 0.620829 0.872029
vt 0.336478 0.679333
vt 0.384504 0.807600
vt 0.456543 0.735561
vt 0.456543 0.687535
vt 0.300459 0.559268
vt 0.196205 0.739366
vt 0.953207 0.499236
vt 0.204406 0.747567
vt 0.936110 0.004101
vt 0.668855 0.439203
vt 0.308660 0.819606
vt 0.668855 0.459412
vt 0.548790 0.839815
vt 0.196205 0.995899
vt 0.196205 0.899847
vt 0.336478 0.959880
vt 0.639752 0.248628
vt 0.632836 0.855626
vt 0.336478 0.968082
vt 0.004101 0.105614
vt 0.915902 0.240426
vt 0.631551 0.004101
vt 0.336478 0.286924
vt 0.783830 0.184198
vt 0.759817 0.028114
vt 0.783830 0.040120
vt 0.759817 0.016107
vt 0.632836 0.679333
vt 0.783830 0.208211
vt 0.735804 0.004101
vt 0.328276 0.551067
vt 0.328276 0.286924
vt 0.783830 0.028114
vt 0.680862 0.511242
vt 0.680862 0.499236
vt 0.800927 0.499236
vt 0.656849 0.511242
vt 0.184198 0.551067
vt 0.800927 0.703346
vt 0.632836 0.703346
vn 0.000000 1.000000 0.000000
vn -1.000000 0.000000 0.000000
vn 1.000000 0.000000 -0.000000
vn 0.000000 0.000000 -1.000000
vn 0.000000 -1.000000 0.000000
vn 0.000000 0.000000 1.000000
s off
f 2/1/1 3/2/1 4/3/1
f 5/4/2 8/5/2 9/6/2
f 12/7/1 2/1/1 1/8/1
f 2/9/3 13/10/3 14/11/3
f 3/12/4 14/13/4 5/14/4
f 1/15/4 10/16/4 16/17/4
f 32/18/5 17/19/5 33/20/5
f 1/21/1 15/22/1 19/23/1
f 12/24/3 20/25/3 13/10/3
f 21/26/3 22/27/3 24/28/3
f 19/29/6 18/30/6 7/31/6
f 15/32/1 25/33/1 26/34/1
f 21/35/4 24/36/4 28/37/4
f 15/32/1 21/38/1 27/39/1
f 11/40/6 7/41/6 20/42/6
f 26/34/1 31/43/1 29/44/1
f 25/45/2 32/46/2 33/47/2
f 27/48/2 28/49/2 32/46/2
f 31/50/4 37/51/4 36/52/4
f 26/53/3 35/54/3 37/51/3
f 22/55/4 9/56/4 8/57/4
f 7/58/5 18/59/5 23/60/5
f 16/61/1 10/62/1 9/63/1
f 5/64/5 14/65/5 13/66/5
f 20/42/6 7/41/6 6/67/6
f 18/68/3 30/69/3 17/70/3
f 19/71/3 29/72/3 30/69/3
f 35/73/1 38/74/1 40/75/1
f 36/76/1 37/77/1 40/75/1
f 38/78/3 41/79/3 43/80/3
f 40/81/4 43/80/4 42/82/4
f 41/83/1 44/84/1 46/85/1
f 42/86/1 43/87/1 46/85/1
f 44/88/3 47/89/3 49/90/3
f 46/91/4 49/90/4 48/92/4
f 47/93/1 50/94/1 52/95/1
f 48/96/1 49/97/1 52/95/1
f 34/98/3 55/99/3 54/100/3
f 30/101/4 53/102/4 55/99/4
f 50/103/2 56/104/2 58/105/2
f 52/106/6 58/107/6 57/108/6
f 44/109/4 56/110/4 50/111/4
f 29/112/3 36/113/3 39/114/3
f 55/115/5 53/116/5 57/117/5
f 1/8/1 2/1/1 4/3/1
f 9/6/2 10/118/2 1/119/2
f 6/120/2 7/121/2 8/5/2
f 9/6/2 1/119/2 4/122/2
f 5/4/2 6/120/2 8/5/2
f 4/122/2 5/4/2 9/6/2
f 3/123/3 2/9/3 14/11/3
f 11/124/1 12/7/1 1/8/1
f 4/125/4 3/12/4 5/14/4
f 15/126/4 1/15/4 16/17/4
f 17/19/5 32/18/5 24/127/5
f 17/19/5 30/128/5 34/129/5
f 11/130/1 1/21/1 19/23/1
f 2/9/3 12/24/3 13/10/3
f 32/18/5 28/131/5 24/127/5
f 17/19/5 34/129/5 33/20/5
f 24/28/3 23/132/3 17/70/3
f 16/133/3 22/27/3 15/134/3
f 22/27/3 23/132/3 24/28/3
f 23/132/3 18/68/3 17/70/3
f 11/135/6 19/29/6 7/31/6
f 19/136/1 15/32/1 26/34/1
f 22/27/3 21/26/3 15/134/3
f 27/137/4 21/35/4 28/37/4
f 25/33/1 15/32/1 27/39/1
f 12/138/6 11/40/6 20/42/6
f 19/136/1 26/34/1 29/44/1
f 26/139/2 25/45/2 33/47/2
f 25/45/2 27/48/2 32/46/2
f 29/140/4 31/50/4 36/52/4
f 31/50/3 26/53/3 37/51/3
f 23/141/4 22/55/4 8/57/4
f 8/142/5 7/58/5 23/60/5
f 22/143/1 16/61/1 9/63/1
f 5/64/5 13/66/5 6/144/5
f 18/68/3 19/71/3 30/69/3
f 37/77/1 35/73/1 40/75/1
f 13/66/5 20/145/5 6/144/5
f 39/146/1 36/76/1 40/75/1
f 40/81/3 38/78/3 43/80/3
f 39/147/4 40/81/4 42/82/4
f 43/87/1 41/83/1 46/85/1
f 45/148/1 42/86/1 46/85/1
f 46/91/3 44/88/3 49/90/3
f 45/149/4 46/91/4 48/92/4
f 49/97/1 47/93/1 52/95/1
f 51/150/1 48/96/1 52/95/1
f 33/151/3 34/98/3 54/100/3
f 34/98/4 30/101/4 55/99/4
f 52/152/2 50/103/2 58/105/2
f 51/153/6 52/106/6 57/108/6
f 33/154/4 38/155/4 26/156/4
f 44/109/4 41/157/4 38/155/4
f 29/112/3 39/114/3 30/158/3
f 33/154/4 54/159/4 56/110/4
f 47/160/4 44/109/4 50/111/4
f 44/109/4 38/155/4 33/154/4
f 56/161/5 55/115/5 58/162/5
f 33/154/4 56/110/4 44/109/4
f 38/155/4 35/163/4 26/156/4
f 45/164/3 48/165/3 51/166/3
f 39/114/3 42/167/3 45/164/3
f 56/161/5 54/168/5 55/115/5
f 57/169/3 53/170/3 30/158/3
f 51/166/3 57/169/3 45/164/3
f 45/164/3 57/169/3 30/158/3
f 39/114/3 45/164/3 30/158/3
f 55/115/5 57/117/5 58/162/5
